<svg xmlns="http://www.w3.org/2000/svg" xmlns:xlink="http://www.w3.org/1999/xlink" viewBox="0 0 500 500"><defs><clipPath id="freepik--clip-path--inject-4"><path d="M410.92,417.43S423.44,306.47,425,294s3.2-20.37-1.06-22.17-105-14.3-109-13.69-6.39,1.56-7.46,3.91-9.59,85.37-9.59,85.37Z" style="fill:#7E57C2;stroke:#263238;stroke-linecap:round;stroke-linejoin:round"></path></clipPath><clipPath id="freepik--clip-path-2--inject-4"><path d="M314,346.68c2.66-2.8,4.79-56.5,2.93-58.45,0,0-43.15-.18-44.21,2.44s1.06,55.71,1.6,56.8C275.87,348.34,311.29,349.48,314,346.68Z" style="fill:#7E57C2;stroke:#263238;stroke-linecap:round;stroke-linejoin:round"></path></clipPath><clipPath id="freepik--clip-path-3--inject-4"><path d="M343,307.57s8.79-40.06,11.18-46.34c2.95-7.72,14.94-4.74,21.12-3.25,7.41,1.78,14.84,3.48,22.17,5.62,2.09.61,15.49,3.24,15.83,6,.27,2.14-5.06,25.06-7.72,35.06s-4,12.86-4,14.45-.54,4-1.87,4.18-8.79.11-26.36-3.65a160.2,160.2,0,0,1-30.9-10Z" style="fill:#7E57C2;stroke:#263238;stroke-linecap:round;stroke-linejoin:round"></path></clipPath><clipPath id="freepik--clip-path-4--inject-4"><path d="M415.75,316c-3.87,0-7.72.24-11.57.51-4.92.34-9.85.74-14.78.8-8.51.1-17.11-.5-25.3,2.34-6.93,2.41-6.66,8.26-6.66,10.66s-.27,82.83.27,86.82a5.76,5.76,0,0,0,1.38,2.67c5.82.25,56.92.35,58.73-.43s3.73-3.73,3.73-9.59c0-5.46,2.83-80.41,1.92-93.62C420.55,316,417.73,316,415.75,316Z" style="fill:#7E57C2;stroke:#263238;stroke-linecap:round;stroke-linejoin:round"></path></clipPath><clipPath id="freepik--clip-path-5--inject-4"><rect x="313.92" y="378.53" width="72.54" height="51.3" rx="5.14" style="fill:#7a7a7a;stroke:#263238;stroke-linecap:round;stroke-linejoin:round"></rect></clipPath><clipPath id="freepik--clip-path-6--inject-4"><path d="M280.63,244.15s-5.55,3.1-8.64,6.45-18.32,18.19-18.32,18.19,6.45,13.41,6.84,13.41,12-12.25,12-12.25,9.93,11.6,15.48,19.21,8,11.61,8,11.61,2.19,2.32,7.61,2.71,27.47,1.81,31.34.9,7.35-2.58,7.09-4.9-4.9-6.7-8.25-15.09-8.77-24.38-17.93-34S293,238.47,292.11,238.47,280.63,244.15,280.63,244.15Z" style="fill:#fff;stroke:#263238;stroke-linecap:round;stroke-linejoin:round"></path></clipPath><clipPath id="freepik--clip-path-7--inject-4"><path d="M266.05,206.23s-9.93,5.29-10.19,7a80.18,80.18,0,0,0,.13,9.68c.13,1.68,1.94,3.61,1.94,4.51s.25,4.77,1.29,6.84,7.22,10.19,8.51,10.45,5.67-2.07,5.67-2.07l7.1,17.16,9.8-21.67-6.45-11.87L281,219.39l-4,2.45-.91-4.13s-6.45-3.61-6.58-4.9,1-4,.52-4.9S266.05,206.23,266.05,206.23Z" style="fill:#fff;stroke:#263238;stroke-linecap:round;stroke-linejoin:round"></path></clipPath><clipPath id="freepik--clip-path-8--inject-4"><path d="M278.31,222.22s.25-6.32,3.86-6.06,3.23,7,2.33,9.8-4.26,1.81-4.26,1.81" style="fill:#fff;stroke:#263238;stroke-linecap:round;stroke-linejoin:round"></path></clipPath><clipPath id="freepik--clip-path-9--inject-4"><path d="M300.1,255.5s-2.83,3.87-2.83,6.58S308.36,296,308.36,296l17.28,2.45-8-38.75" style="fill:#fff;stroke:#263238;stroke-linecap:round;stroke-linejoin:round"></path></clipPath><clipPath id="freepik--clip-path-10--inject-4"><path d="M305.52,292.52c-.13.56,1.16,5.16,1.16,5.16s19.73,8.12,20.25,7.48a3.4,3.4,0,0,0,.77-1.81c0-.39-.51-10.32-.64-11.86s-.65-1.81-1.29-1.68-17.8,1.8-18.57,1.93S305.78,291.36,305.52,292.52Z" style="fill:#fff;stroke:#263238;stroke-linecap:round;stroke-linejoin:round"></path></clipPath><clipPath id="freepik--clip-path-11--inject-4"><rect x="88.48" y="335.5" width="51.32" height="87.42" style="fill:#263238;stroke:#263238;stroke-linecap:round;stroke-linejoin:round"></rect></clipPath><clipPath id="freepik--clip-path-12--inject-4"><polygon points="139.8 335.5 157.7 289.25 132.94 289.25 88.48 335.5 139.8 335.5" style="fill:#263238;stroke:#263238;stroke-linecap:round;stroke-linejoin:round"></polygon></clipPath></defs><g id="freepik--Couch--inject-4"><path d="M410.92,417.43S423.44,306.47,425,294s3.2-20.37-1.06-22.17-105-14.3-109-13.69-6.39,1.56-7.46,3.91-9.59,85.37-9.59,85.37Z" style="fill:#7E57C2"></path><g style="clip-path:url(#freepik--clip-path--inject-4)"><path d="M410.92,417.43S423.44,306.47,425,294s3.2-20.37-1.06-22.17-105-14.3-109-13.69-6.39,1.56-7.46,3.91-9.59,85.37-9.59,85.37Z" style="opacity:0.30000000000000004"></path></g><path d="M410.92,417.43S423.44,306.47,425,294s3.2-20.37-1.06-22.17-105-14.3-109-13.69-6.39,1.56-7.46,3.91-9.59,85.37-9.59,85.37Z" style="fill:none;stroke:#263238;stroke-linecap:round;stroke-linejoin:round"></path><path d="M300.38,286.92s-29.57-2.2-31.43,1.44-.27,49.52.27,53,3.46,5.22,5.06,6.1,37,2,39.68-.79,4.79-56.5,2.93-58.45S300.38,286.92,300.38,286.92Z" style="fill:#7E57C2;stroke:#263238;stroke-linecap:round;stroke-linejoin:round"></path><path d="M314,346.68c2.66-2.8,4.79-56.5,2.93-58.45,0,0-43.15-.18-44.21,2.44s1.06,55.71,1.6,56.8C275.87,348.34,311.29,349.48,314,346.68Z" style="fill:#7E57C2"></path><g style="clip-path:url(#freepik--clip-path-2--inject-4)"><path d="M314,346.68c2.66-2.8,4.79-56.5,2.93-58.45,0,0-43.15-.18-44.21,2.44s1.06,55.71,1.6,56.8C275.87,348.34,311.29,349.48,314,346.68Z" style="opacity:0.30000000000000004"></path></g><path d="M314,346.68c2.66-2.8,4.79-56.5,2.93-58.45,0,0-43.15-.18-44.21,2.44s1.06,55.71,1.6,56.8C275.87,348.34,311.29,349.48,314,346.68Z" style="fill:none;stroke:#263238;stroke-linecap:round;stroke-linejoin:round"></path><path d="M347.51,409s-70.57-58.2-73.23-61.52S273,302.66,273,301.6s30.62-3.08,39.41-2.4,104.93,23.61,105.2,25.22-1.6,92.49-1.87,93.81S347.51,409,347.51,409Z" style="fill:#7E57C2;stroke:#263238;stroke-linecap:round;stroke-linejoin:round"></path><path d="M354.44,263.64s.53-10.89-1.6-11.26-16.51,1.35-23.17,1.83-22.37-1.32-24,1.27-10.65,40-8.52,42.74S339,313,342.19,311.8,354.44,263.64,354.44,263.64Z" style="fill:#7E57C2;stroke:#263238;stroke-linecap:round;stroke-linejoin:round"></path><path d="M343,307.57s8.79-40.06,11.18-46.34c2.95-7.72,14.94-4.74,21.12-3.25,7.41,1.78,14.84,3.48,22.17,5.62,2.09.61,15.49,3.24,15.83,6,.27,2.14-5.06,25.06-7.72,35.06s-4,12.86-4,14.45-.54,4-1.87,4.18-8.79.11-26.36-3.65a160.2,160.2,0,0,1-30.9-10Z" style="fill:#7E57C2"></path><g style="clip-path:url(#freepik--clip-path-3--inject-4)"><path d="M413.29,269.62c-.12-1-2-2-4.41-2.89-2.84,7.63-15.24,40.94-20.94,55.63,7.35,1.09,10.89,1.08,11.77.95,1.33-.21,1.87-2.58,1.87-4.18s1.33-4.46,4-14.45S413.56,271.76,413.29,269.62Z" style="opacity:0.30000000000000004"></path></g><path d="M343,307.57s8.79-40.06,11.18-46.34c2.95-7.72,14.94-4.74,21.12-3.25,7.41,1.78,14.84,3.48,22.17,5.62,2.09.61,15.49,3.24,15.83,6,.27,2.14-5.06,25.06-7.72,35.06s-4,12.86-4,14.45-.54,4-1.87,4.18-8.79.11-26.36-3.65a160.2,160.2,0,0,1-30.9-10Z" style="fill:none;stroke:#263238;stroke-linecap:round;stroke-linejoin:round"></path><path d="M273,301.6,356.57,342,347.51,409l-73.23-61.52s-1.87-3-2.13-10.49S273,301.6,273,301.6Z" style="fill:#7E57C2;stroke:#263238;stroke-linecap:round;stroke-linejoin:round"></path><path d="M391.86,309.07c-4.93.34-9.85.74-14.79.8-8.51.1-17.11-.5-25.29,2.34-6.93,2.41-6.66,8.26-6.66,10.66s-.27,82.83.26,86.82,10.12,9.85,13.32,10.11,57.26.39,59.12-.41,3.73-3.73,3.73-9.59,3.25-91.76,1.66-95.49c-2.68-6.24-14.37-5.75-19.78-5.75C399.56,308.57,395.71,308.8,391.86,309.07Z" style="fill:#7E57C2;stroke:#263238;stroke-linecap:round;stroke-linejoin:round"></path><path d="M415.75,316c-3.87,0-7.72.24-11.57.51-4.92.34-9.85.74-14.78.8-8.51.1-17.11-.5-25.3,2.34-6.93,2.41-6.66,8.26-6.66,10.66s-.27,82.83.27,86.82a5.76,5.76,0,0,0,1.38,2.67c5.82.25,56.92.35,58.73-.43s3.73-3.73,3.73-9.59c0-5.46,2.83-80.41,1.92-93.62C420.55,316,417.73,316,415.75,316Z" style="fill:#7E57C2"></path><g style="clip-path:url(#freepik--clip-path-4--inject-4)"><path d="M415.75,316c-3.87,0-7.72.24-11.57.51-4.92.34-9.85.74-14.78.8-8.51.1-17.11-.5-25.3,2.34-6.93,2.41-6.66,8.26-6.66,10.66s-.27,82.83.27,86.82a5.76,5.76,0,0,0,1.38,2.67c5.82.25,56.92.35,58.73-.43s3.73-3.73,3.73-9.59c0-5.46,2.83-80.41,1.92-93.62C420.55,316,417.73,316,415.75,316Z" style="opacity:0.30000000000000004"></path></g><path d="M415.75,316c-3.87,0-7.72.24-11.57.51-4.92.34-9.85.74-14.78.8-8.51.1-17.11-.5-25.3,2.34-6.93,2.41-6.66,8.26-6.66,10.66s-.27,82.83.27,86.82a5.76,5.76,0,0,0,1.38,2.67c5.82.25,56.92.35,58.73-.43s3.73-3.73,3.73-9.59c0-5.46,2.83-80.41,1.92-93.62C420.55,316,417.73,316,415.75,316Z" style="fill:none;stroke:#263238;stroke-linecap:round;stroke-linejoin:round"></path></g><g id="freepik--Character--inject-4"><path d="M250.45,361s-2.07,2.32-8.13,6.06-12.25,5.67-11.74,7.22,7.87,3.74,14.84,2.32,5.15-3.09,12.51-4.51v1.67s.9.39,3.61-.38a18.63,18.63,0,0,0,4.51-1.94v-1.93a3.6,3.6,0,0,0,.78-3.48c-.65-2.07-3.74-5.16-3.74-5.16Z" style="fill:#707070;stroke:#263238;stroke-linecap:round;stroke-linejoin:round"></path><path d="M254.06,371.58c-4.65,1.55-6.84,4.26-15,3.87-4.94-.23-7.25-1.18-8.31-1.89a.78.78,0,0,0-.21.73c.52,1.55,7.87,3.74,14.84,2.32s5.15-3.09,12.51-4.51v1.67s.9.39,3.61-.38a18.63,18.63,0,0,0,4.51-1.94v-1.93l.12-.14C262.24,370.87,258.2,370.2,254.06,371.58Z" style="fill:#707070;stroke:#263238;stroke-linecap:round;stroke-linejoin:round"></path><path d="M263.09,360.88l-11.41.11.06.27s2.06.91,2.19,2.2.13,2.45.13,2.45,8-1.43,10.45-3.47C263.74,361.53,263.09,360.88,263.09,360.88Z" style="fill:#fff;stroke:#263238;stroke-linecap:round;stroke-linejoin:round"></path><path d="M340,301.29c4,1.93,3.74,16.89,1,21.54s-12.38,3.61-26.44,1.8-54.82-11.86-54.82-11.86l4,49.91a42.32,42.32,0,0,1-8,.65,15.82,15.82,0,0,1-6.32-1.42s-8.64-56.49-8.77-60.24-.9-7.73,4.13-9,18.7-.13,27.34,1.42,24.64,5.28,24.64,5.28Z" style="fill:#263238;stroke:#263238;stroke-linecap:round;stroke-linejoin:round"></path><path d="M280.63,244.15s-5.55,3.1-8.64,6.45-18.32,18.19-18.32,18.19,6.45,13.41,6.84,13.41,12-12.25,12-12.25,9.93,11.6,15.48,19.21,8,11.61,8,11.61,2.19,2.32,7.61,2.71,27.47,1.81,31.34.9,7.35-2.58,7.09-4.9-4.9-6.7-8.25-15.09-8.77-24.38-17.93-34S293,238.47,292.11,238.47,280.63,244.15,280.63,244.15Z" style="fill:#fff"></path><g style="clip-path:url(#freepik--clip-path-6--inject-4)"><path d="M333.77,284.39c-3.36-8.38-8.77-24.38-17.93-34S293,238.47,292.11,238.47c-.72,0-7.58,3.61-10.34,5.07l4.51,7.19s7.64-.28,10.92.54,9.83,4.64,10.65,8.74,8.46,33,8.46,33-.43,6.59,1.31,11.26c7.4.36,15.16.57,17.31.07,3.87-.9,7.35-2.58,7.09-4.9S337.12,292.78,333.77,284.39Z" style="opacity:0.30000000000000004"></path><path d="M272.5,270s-.36-11.36-.82-10.67-13.5,18.53-13.5,18.53l-.45,7.55,13.49-13.72" style="opacity:0.30000000000000004"></path></g><path d="M280.63,244.15s-5.55,3.1-8.64,6.45-18.32,18.19-18.32,18.19,6.45,13.41,6.84,13.41,12-12.25,12-12.25,9.93,11.6,15.48,19.21,8,11.61,8,11.61,2.19,2.32,7.61,2.71,27.47,1.81,31.34.9,7.35-2.58,7.09-4.9-4.9-6.7-8.25-15.09-8.77-24.38-17.93-34S293,238.47,292.11,238.47,280.63,244.15,280.63,244.15Z" style="fill:none;stroke:#263238;stroke-linecap:round;stroke-linejoin:round"></path><path d="M255.35,267s7.61,13.67,7.74,14.32.12,1.16-.91,2.32-5.93,5.41-6.83,5.54-6.84-14.05-6.84-14.05a9.62,9.62,0,0,1,.65-3.49c.64-1.29,5.15-5.16,5.67-4.9Z" style="fill:#fff;stroke:#263238;stroke-linecap:round;stroke-linejoin:round"></path><path d="M258.31,228.93s-6.19,5.42-5.54,6.84,7.35,11,7.61,11.48-12.64,28-15,33.79-.91,7.87.12,9.54,4.65,2.2,6.32,1.55,7.1-2.84,8.13-8.9,5.42-33.15,6.58-35.86,3.22-3.48,2.58-6.19-7.87-13.67-8.39-13.93S258.31,228.93,258.31,228.93Z" style="fill:#fff;stroke:#263238;stroke-linecap:round;stroke-linejoin:round"></path><path d="M257.54,235.64a2.23,2.23,0,0,0,1,.51,3.14,3.14,0,0,0,1.68-.51" style="fill:none;stroke:#263238;stroke-linecap:round;stroke-linejoin:round"></path><path d="M261.67,239.38s3.74,3.35,3.35,5a4.5,4.5,0,0,1-2.19,2.58" style="fill:none;stroke:#263238;stroke-linecap:round;stroke-linejoin:round"></path><polygon points="280.07 265.14 274.21 300.83 278.3 312.37 283.98 302.07 281.67 264.25 280.07 265.14" style="fill:#7E57C2;stroke:#263238;stroke-linecap:round;stroke-linejoin:round"></polygon><polygon points="277.23 256.26 280.07 265.14 280.96 265.5 285.66 254.98 281.13 251.83 277.23 256.26" style="fill:#7E57C2;stroke:#263238;stroke-linecap:round;stroke-linejoin:round"></polygon><polygon points="274.69 255.89 275.21 264.79 279.08 257.69 274.69 255.89" style="fill:#fff;stroke:#263238;stroke-linecap:round;stroke-linejoin:round"></polygon><polygon points="277.01 248.66 274.69 255.89 280.5 259.76 279.85 250.6 277.01 248.66" style="fill:#fff;stroke:#263238;stroke-linecap:round;stroke-linejoin:round"></polygon><path d="M257.28,215.39s-.39,1.55-5.67-.13-8.39-2.19-7.23-4.39,2.07-2.45,3.36-2.45-5.29,0-4.78-4.51,5.42-7.1,8-6.06,7.61,3.09,7.61,3.09-1.29-1.93.65-2.06a14.93,14.93,0,0,1,4.77.9s5-3.87,9.8-3.87,13.93,3.61,16.51,8.13,4.26,10.19,3.1,14.83-7.49,11.35-7.61,12-1,.51-1.94,0-3.09-7.23-4.13-7.23-3.87,1.29-4.64-.51-1-4.13-2.71-5.42-4.77-2.06-4.9-4.52,1.16-4.64-1-4.38S257.28,215.39,257.28,215.39Z" style="fill:#263238;stroke:#263238;stroke-linecap:round;stroke-linejoin:round"></path><path d="M270.29,206.52s12.1-2.61,18.5,3.32" style="fill:none;stroke:#616161;stroke-linecap:round;stroke-linejoin:round"></path><path d="M286.3,214.42a13.62,13.62,0,0,1,1.3,1.11" style="fill:none;stroke:#616161;stroke-linecap:round;stroke-linejoin:round"></path><path d="M271.71,210.55a26.61,26.61,0,0,1,11.72,2.16" style="fill:none;stroke:#616161;stroke-linecap:round;stroke-linejoin:round"></path><path d="M266.05,206.23s-9.93,5.29-10.19,7a80.18,80.18,0,0,0,.13,9.68c.13,1.68,1.94,3.61,1.94,4.51s.25,4.77,1.29,6.84,7.22,10.19,8.51,10.45,5.67-2.07,5.67-2.07l7.1,17.16,9.8-21.67-6.45-11.87L281,219.39l-4,2.45-.91-4.13s-6.45-3.61-6.58-4.9,1-4,.52-4.9S266.05,206.23,266.05,206.23Z" style="fill:#fff"></path><g style="clip-path:url(#freepik--clip-path-7--inject-4)"><path d="M290.3,238.09l-6.45-11.87L281,219.39l-4,2.45-.91-4.13s-6.45-3.61-6.58-4.9,1-4,.52-4.9a3,3,0,0,0-1.42-.9c-.55,1.76-1.68,5.9-.83,7.78,1.11,2.43,5.52,8.39,6.18,12.8s1.33,10.16-.44,12.14c-1.24,1.4-4,3.56-5.55,5,1.54,0,5.41-2.08,5.41-2.08l2.21,5.33c3.62.69,7.43,1.35,9.47,1.7Z" style="opacity:0.30000000000000004"></path></g><path d="M266.05,206.23s-9.93,5.29-10.19,7a80.18,80.18,0,0,0,.13,9.68c.13,1.68,1.94,3.61,1.94,4.51s.25,4.77,1.29,6.84,7.22,10.19,8.51,10.45,5.67-2.07,5.67-2.07l7.1,17.16,9.8-21.67-6.45-11.87L281,219.39l-4,2.45-.91-4.13s-6.45-3.61-6.58-4.9,1-4,.52-4.9S266.05,206.23,266.05,206.23Z" style="fill:none;stroke:#263238;stroke-linecap:round;stroke-linejoin:round"></path><polyline points="260.25 221.97 259.99 231.12 263.73 229.7" style="fill:none;stroke:#263238;stroke-linecap:round;stroke-linejoin:round"></polyline><path d="M263.73,233.32a5.88,5.88,0,0,0,3.74-3.23" style="fill:none;stroke:#263238;stroke-linecap:round;stroke-linejoin:round"></path><path d="M266.8,222c.19.72,0,1.39-.34,1.49s-.84-.41-1-1.13,0-1.39.34-1.49S266.61,221.25,266.8,222Z" style="fill:#263238"></path><path d="M260,224.56c.19.72,0,1.39-.34,1.49s-.84-.41-1-1.13,0-1.39.34-1.49S259.77,223.83,260,224.56Z" style="fill:#263238"></path><path d="M256.64,222.74a2.44,2.44,0,0,1,2.83-2.32" style="fill:none;stroke:#263238;stroke-linecap:round;stroke-linejoin:round;stroke-width:2px"></path><path d="M262.31,218.74a3.23,3.23,0,0,1,2.58-2.06,4,4,0,0,1,3.23.26" style="fill:none;stroke:#263238;stroke-linecap:round;stroke-linejoin:round;stroke-width:2px"></path><path d="M278.31,222.22s.25-6.32,3.86-6.06,3.23,7,2.33,9.8-4.26,1.81-4.26,1.81" style="fill:#fff"></path><g style="clip-path:url(#freepik--clip-path-8--inject-4)"><path d="M278.31,222.22s.25-6.32,3.86-6.06,3.23,7,2.33,9.8-4.26,1.81-4.26,1.81" style="opacity:0.30000000000000004"></path></g><path d="M278.31,222.22s.25-6.32,3.86-6.06,3.23,7,2.33,9.8-4.26,1.81-4.26,1.81" style="fill:none;stroke:#263238;stroke-linecap:round;stroke-linejoin:round"></path><polygon points="280.5 254.21 280.5 259.76 285.66 254.98 280.5 254.21" style="fill:#fff;stroke:#263238;stroke-linecap:round;stroke-linejoin:round"></polygon><polygon points="280.5 254.21 286.19 263.61 294.04 237.31 290.82 234.6 280.5 254.21" style="fill:#fff;stroke:#263238;stroke-linecap:round;stroke-linejoin:round"></polygon><path d="M300.1,255.5s-2.83,3.87-2.83,6.58S308.36,296,308.36,296l17.28,2.45-8-38.75" style="fill:#fff"></path><g style="clip-path:url(#freepik--clip-path-9--inject-4)"><path d="M317.9,259.37l-11.81-2.57a7.18,7.18,0,0,1,1.76,3.21c.82,4.1,8.46,33,8.46,33a39.67,39.67,0,0,0,0,4.08l9.32,1.32Z" style="opacity:0.30000000000000004"></path></g><path d="M300.1,255.5s-2.83,3.87-2.83,6.58S308.36,296,308.36,296l17.28,2.45-8-38.75" style="fill:none;stroke:#263238;stroke-linecap:round;stroke-linejoin:round"></path><path d="M307.45,296s-34.95,17.54-35.59,19.22-4.39,15.6-5,17,3.87,4.13,4.38,4.9,2.58,0,2.58,0a18.07,18.07,0,0,0,2.58-.64c.52-.26,1-.26,1.42-.77a5.32,5.32,0,0,0,1.42-1.94c.51-1.29,1-1.29.26-2.06s-1.29-.65-1.42-.26a1.41,1.41,0,0,1-.52.64L277,331a6.1,6.1,0,0,0,2.32-5c0-3.48-.65-9.41-.65-9.41s43.21-9.68,45.14-10.45,2.58-1.93,1.81-3.1S307.45,296,307.45,296Z" style="fill:#fff;stroke:#263238;stroke-linecap:round;stroke-linejoin:round"></path><line x1="269.15" y1="333.15" x2="271.21" y2="337.14" style="fill:#fff;stroke:#263238;stroke-linecap:round;stroke-linejoin:round"></line><line x1="271.34" y1="332.37" x2="273.79" y2="337.14" style="fill:#fff;stroke:#263238;stroke-linecap:round;stroke-linejoin:round"></line><line x1="274.44" y1="331.86" x2="277.02" y2="335.98" style="fill:#fff;stroke:#263238;stroke-linecap:round;stroke-linejoin:round"></line><path d="M305.52,292.52c-.13.56,1.16,5.16,1.16,5.16s19.73,8.12,20.25,7.48a3.4,3.4,0,0,0,.77-1.81c0-.39-.51-10.32-.64-11.86s-.65-1.81-1.29-1.68-17.8,1.8-18.57,1.93S305.78,291.36,305.52,292.52Z" style="fill:#fff"></path><g style="clip-path:url(#freepik--clip-path-10--inject-4)"><path d="M309.13,298.68c5.3,2.15,17.4,7,17.8,6.48a3.4,3.4,0,0,0,.77-1.81c0-.39-.51-10.32-.64-11.86s-.65-1.81-1.29-1.68c-.3.06-4.24.46-8.41.88l0,.16s4.14,1,4.62,2.67-2.67,5.11-3.16,6.33C318.46,300.66,312.84,299.52,309.13,298.68Z" style="opacity:0.30000000000000004"></path></g><path d="M305.52,292.52c-.13.56,1.16,5.16,1.16,5.16s19.73,8.12,20.25,7.48a3.4,3.4,0,0,0,.77-1.81c0-.39-.51-10.32-.64-11.86s-.65-1.81-1.29-1.68-17.8,1.8-18.57,1.93S305.78,291.36,305.52,292.52Z" style="fill:none;stroke:#263238;stroke-linecap:round;stroke-linejoin:round"></path><path d="M280.63,387.45a147.93,147.93,0,0,1-13.8,8.38c-9.16,5-15.48,6.19-15.48,8.13s4,4.12,9.16,4.51,11.35.52,15-1.81,5.41-2.58,5.41-2.58l-.12,1.29a8.4,8.4,0,0,0,3.74-.51,41.58,41.58,0,0,0,5-1.94l.25-2.32a3.24,3.24,0,0,0,1.68-3c.13-2.33-1.29-9.16-1.29-9.16Z" style="fill:#707070;stroke:#263238;stroke-linecap:round;stroke-linejoin:round"></path><path d="M289.53,402.92l.25-2.32a2.28,2.28,0,0,0,.57-.39,55.8,55.8,0,0,0-6.76,1.55c-2.71.91-5.41.91-9.41,3.36s-9,3.09-14.83,2.19a10.87,10.87,0,0,1-7.51-4.26,1.25,1.25,0,0,0-.49.91c0,1.93,4,4.12,9.16,4.51s11.35.52,15-1.81,5.41-2.58,5.41-2.58l-.12,1.29a8.4,8.4,0,0,0,3.74-.51A41.58,41.58,0,0,0,289.53,402.92Z" style="fill:#707070;stroke:#263238;stroke-linecap:round;stroke-linejoin:round"></path><path d="M291.09,393.6c-.38-2.53-.92-5.12-.92-5.12l-9.54-1s-.56.4-1.64,1.11l.22.3s1-.51,2.06,1.68a12.35,12.35,0,0,1,.78,5.29S288.12,395.55,291.09,393.6Z" style="fill:#fff;stroke:#263238;stroke-linecap:round;stroke-linejoin:round"></path><path d="M330.54,306.32s-27.8-5.09-33-3.29-6.57,9.42-6.83,12.39-2.9,43-6.25,55.26-5.29,18.18-5.29,18.18.26,1.94,4.25,3.62a21.68,21.68,0,0,0,6.45,1.8s15.48-34.69,18.71-43.08,3.14-26.39,3.14-26.39S332,331,338.93,324c3.84-3.91,3.22-12.9,1.67-15L339.05,307" style="fill:#263238;stroke:#263238;stroke-linecap:round;stroke-linejoin:round"></path></g><g id="freepik--TV--inject-4"><rect x="88.48" y="335.5" width="51.32" height="87.42" style="fill:#263238"></rect><g style="clip-path:url(#freepik--clip-path-11--inject-4)"><rect x="88.48" y="335.5" width="51.32" height="87.42" style="fill:#fff;opacity:0.03"></rect></g><rect x="88.48" y="335.5" width="51.32" height="87.42" style="fill:none;stroke:#263238;stroke-linecap:round;stroke-linejoin:round"></rect><polygon points="139.8 335.5 157.7 289.25 132.94 289.25 88.48 335.5 139.8 335.5" style="fill:#263238"></polygon><g style="clip-path:url(#freepik--clip-path-12--inject-4)"><polygon points="139.8 335.5 157.7 289.25 132.94 289.25 88.48 335.5 139.8 335.5" style="fill:#fff;opacity:0.25"></polygon><polygon points="153.53 289.25 132.94 289.25 88.48 335.5 120.48 335.5 115.19 323.43 138.86 294.13 153.53 289.25" style="opacity:0.34"></polygon></g><polygon points="139.8 335.5 157.7 289.25 132.94 289.25 88.48 335.5 139.8 335.5" style="fill:none;stroke:#263238;stroke-linecap:round;stroke-linejoin:round"></polygon><polygon points="157.7 289.25 157.7 324.76 139.8 422.92 139.8 335.5 157.7 289.25" style="fill:#263238;stroke:#263238;stroke-linecap:round;stroke-linejoin:round"></polygon><polygon points="122.59 316.21 113.13 319.91 115.79 317.54 125.25 314 122.59 316.21" style="fill:#263238;stroke:#263238;stroke-linecap:round;stroke-linejoin:round"></polygon><polygon points="125.25 314 134.7 317.99 133.22 320.06 122.59 316.21 125.25 314" style="fill:#263238;stroke:#263238;stroke-linecap:round;stroke-linejoin:round"></polygon><polygon points="147.41 294.94 142.53 293.61 141.05 294.79 146.67 295.82 147.41 294.94" style="fill:#263238;stroke:#263238;stroke-linecap:round;stroke-linejoin:round"></polygon><polygon points="121.53 218.41 121.53 319.88 143.9 292.71 143.9 238.64 121.53 218.41" style="fill:#263238;stroke:#263238;stroke-linecap:round;stroke-linejoin:round"></polygon><polygon points="123.18 221.7 123.18 314.57 143.32 290.12 143.32 240.31 123.18 221.7" style="fill:#7E57C2;stroke:#263238;stroke-linecap:round;stroke-linejoin:round"></polygon><rect x="116.82" y="218.25" width="4.58" height="101.51" style="fill:#263238;stroke:#263238;stroke-linecap:round;stroke-linejoin:round"></rect></g></svg>